<?xml version="1.0" encoding="utf-8"?>
<!-- Generator: Adobe Illustrator 23.0.1, SVG Export Plug-In . SVG Version: 6.00 Build 0)  -->
<svg version="1.1" id="Layer_1" xmlns="http://www.w3.org/2000/svg" xmlns:xlink="http://www.w3.org/1999/xlink" x="0px" y="0px"
	 viewBox="0 0 202 44" style="enable-background:new 0 0 202 44;" xml:space="preserve">
<style type="text/css">
	.st0{fill:#E30613;}
	.st1{fill:#B71E18;}
	.st2{fill:url(#SVGID_1_);}
	.st3{fill:#ED6C4A;}
	.st4{display:none;opacity:0.61;}
	.st5{opacity:0.61;}
	.st6{display:inline;}
	.st7{display:inline;clip-path:url(#SVGID_3_);fill:url(#SVGID_4_);}
	.st8{fill-rule:evenodd;clip-rule:evenodd;fill:#FFFFFF;}
	.st9{clip-path:url(#SVGID_6_);}
	.st10{fill:url(#SVGID_7_);}
	.st11{fill:url(#SVGID_8_);}
	.st12{fill-rule:evenodd;clip-rule:evenodd;fill:none;}
	.st13{fill-rule:evenodd;clip-rule:evenodd;fill:#B28218;}
	.st14{fill:#DC1215;}
	.st15{fill:#FFFFFF;}
	.st16{fill:url(#SVGID_11_);}
	.st17{filter:url(#Adobe_OpacityMaskFilter);}
	.st18{fill:url(#SVGID_13_);}
	.st19{mask:url(#SVGID_12_);fill-rule:evenodd;clip-rule:evenodd;fill:url(#SVGID_14_);}
	.st20{fill:none;}
	.st21{clip-path:url(#SVGID_16_);fill:url(#SVGID_17_);}
	.st22{fill-rule:evenodd;clip-rule:evenodd;fill:#0A9B39;}
	.st23{clip-path:url(#SVGID_19_);fill-rule:evenodd;clip-rule:evenodd;fill:#007133;}
</style>
<path class="st0" d="M111.3,17.1c-2.4,0-3.8,1.5-4.9,3.4h-0.1c0-1.9-0.8-3.4-2.9-3.4c-2.6,0-3.9,1.9-4.8,3.6h0
	c0.2-0.6,0.3-1.5,0.5-2.2c0.1-0.3-0.1-0.5-0.2-0.7c-0.2-0.2-0.4-0.3-0.7-0.3h-2.6l-2.3,13c-0.1,0.2,0,0.5,0.2,0.7
	c0.2,0.2,0.4,0.3,0.6,0.3h2.7l0.2-1.2c1.4-7.8,3.2-9.9,4.7-9.9c1.1,0,1.2,1,1,2.4l-1.4,7.6c-0.1,0.3,0,0.5,0.2,0.7
	c0.2,0.2,0.4,0.3,0.7,0.3h2.7l0.2-1.2c1.4-7.7,3.2-9.9,4.7-9.9c1,0,1.2,1,0.9,2.4l-1.4,7.8c-0.1,0.2,0,0.4,0.2,0.6
	c0.2,0.2,0.4,0.3,0.6,0.3h2.8l1.6-8.8c0.2-0.7,0.2-1.4,0.2-1.9C114.3,18.3,113.2,17.1,111.3,17.1z M126.7,14.2l1.2,0.2
	c0.4,0.1,0.7,0.1,0.8-0.5l0.4-1.5c0.1-0.5-0.1-0.6-0.5-0.7l-1.1-0.2c-0.3,0-0.7-0.1-0.8,0.5l-0.5,1.6
	C126.2,13.9,126.3,14.1,126.7,14.2z M91.6,17.5h-5.3c-3.9,0-6.5,1.7-6.5,4.8c0,1.7,1.2,2.7,2.3,2.8v0.1c-0.5,0.2-1,0.8-1.5,1.4
	c-1,1.2-1.7,2-2.3,2c-0.1,0-0.2,0.1-0.3,0.2l-0.3,2.2c0,0.1,0,0.2,0.1,0.3c0.1,0.1,0.2,0.1,0.3,0.1h1.1c1.8,0,2.4-0.7,4.2-2.9
	c1.4-1.8,1.9-2.4,2.7-2.4h0.6L85.9,31c0,0.1,0,0.2,0.1,0.3c0,0.1,0.2,0.1,0.3,0.1h3.1c0.2,0,0.3-0.1,0.3-0.3l2.4-13.3
	c0-0.1,0-0.2-0.1-0.3C91.8,17.6,91.7,17.5,91.6,17.5z M87.2,23.6h-1.9c-1.2,0-1.8-0.4-1.8-1.2c0-1.4,0.9-2.1,2.5-2.1h1.8L87.2,23.6z
	 M82.4,11.1c14.6-0.6,37.8,2.1,37.8,2.1c0.3,0.1,0.6-0.1,0.7-0.4l0.3-0.8l0.4-1.3c0.1-0.1,0-0.2-0.1-0.3c-0.1-0.1-0.1-0.1-0.2-0.2
	c-2.9-0.4-24-3.1-39.3-2.8C67.5,8,55.3,10.9,52.1,11.7c-0.3,0.1-0.5,0.3-0.5,0.6l-0.4,1.9c0,0.1,0,0.2,0.1,0.3
	c0,0.1,0.2,0.1,0.3,0.1c2.6-0.6,6.3-1.2,11.1-1.8l-3.2,18.2c-0.1,0.3-0.1,0.7,0.5,0.7H63c0.2,0,0.5-0.1,0.6-0.6l3-17.6
	c0-0.1,0.2-1,1.2-1.2c1.3-0.2,3.6-0.3,4.9-0.4l-3.4,19.1c-0.1,0.7,0.2,0.6,0.5,0.6h3.3c0.3,0,0.7-0.1,0.8-0.7L77,12.4
	c0,0,0.2-1,1.2-1.2C79.8,11.2,80.8,11.1,82.4,11.1z M122.9,13.7l1.4,0.2c0.4,0.1,0.7,0.1,0.8-0.5l0.5-1.6c0.1-0.5-0.1-0.6-0.5-0.7
	l-1.3-0.2c-0.3-0.1-0.7-0.1-0.8,0.5l-0.5,1.6C122.3,13.3,122.4,13.5,122.9,13.7z M128.1,20.8c0-2.3-1.6-3.6-4.2-3.6
	c-4.4,0-7.9,3.9-7.9,9.1c0,3.3,1.8,5.6,5.3,5.6c2.7,0,4.5-1.1,5.5-2l-1.5-2.5c-0.9,0.8-2.1,1.5-3.5,1.5c-1.5,0-2.1-1-2.2-2.5
	C124.3,25.7,128.1,24.2,128.1,20.8z M119.9,23.9c0.5-2,1.7-3.9,3.4-3.9c0.9,0,1.3,0.4,1.3,1.2C124.6,22.6,122.7,23.6,119.9,23.9z
	 M139,17.1c-2.4,0-3.7,1.7-4.8,3.7h-0.1c0.2-0.5,0.3-1,0.4-1.5c0.1-0.5,0-0.9-0.3-1.3c-0.3-0.4-0.7-0.6-1.2-0.6h-1.8l-3.7,20.2h2.1
	c0.9,0,1.7-0.7,1.9-1.6l0.8-4.5c0.3,0.1,0.9,0.2,1.9,0.2c4.8,0,8.2-3.9,8.2-10C142.6,19,141.2,17.1,139,17.1z M134.3,29
	c-0.8,0-1.2-0.1-1.4-0.2l0.2-0.8c1.1-5.1,2.8-7.7,4.5-7.7c0.9,0,1.3,0.8,1.3,2.1C138.7,26.5,136.7,29,134.3,29z M196.5,17.1
	c-5.1,0-8.7,4.1-8.7,10.1c0,2.8,1.5,4.6,3.6,4.6c2.3,0,3.6-1.7,4.7-3.7h0c-0.1,0.6-0.3,1.4-0.4,2.1c0,0.3,0.1,0.7,0.3,0.9
	c0.2,0.3,0.5,0.4,0.9,0.4h2.4c0-1,0.2-3.3,0.9-7.2l1.2-6.3C200.7,17.7,199.1,17.1,196.5,17.1z M197.2,20.9c-1,5.2-2.8,7.7-4.3,7.7
	c-0.9,0-1.3-0.7-1.3-2c0-3.9,2.1-6.7,4.3-6.7c0.6,0,1.1,0.1,1.3,0.2L197.2,20.9z M183.1,25.9c-0.4-0.8-0.8-1.4-1.2-1.7l6.1-6.7h-3.3
	c-0.6,0-1.1,0.3-1.5,0.7l-4.3,5h-0.8l0.8-4.6c0-0.3,0-0.6-0.2-0.8c-0.1-0.2-0.5-0.4-0.7-0.4h-2.7l-2.4,14h2.7c0.6,0,1.1-0.5,1.2-1
	l0.9-4.7h0.4c0.8,0,1.3,0.9,2.2,2.7c1,2.2,1.5,3,3.3,3h1.5l0.5-2.8h-0.3C184.5,28.7,183.9,27.8,183.1,25.9z M168.1,18.4
	c-0.6,3.6-2.4,5.9-4.1,5.9c-0.9,0-1.2-0.7-1-2.2l0.5-2.7c0-0.5-0.1-0.9-0.4-1.3c-0.3-0.4-0.7-0.6-1.2-0.6h-1.9l-0.9,4.7
	c-0.1,0.6-0.2,1.2-0.2,1.7c0,2.3,1.1,3.6,3.1,3.6c2.5,0,4.1-1.6,5.1-3.4h0c-0.4,2.1-1,5.3-1.2,7.3h3.6c0.1-1,0.3-3.3,1-7.2l1.2-6.8
	h-3.7L168.1,18.4z M151.7,17.1c-4.5,0-7.8,4-7.8,8.8c0,3.2,2,5.8,5.5,5.8c4.6,0,7.7-3.8,7.7-8.8C157.1,19.6,155.1,17.1,151.7,17.1z
	 M149.7,28.9c-1.4,0-2.1-1.2-2.1-3c0-2.6,1.5-5.9,3.8-5.9c1.4,0,2.1,1.1,2.1,3C153.5,25.5,152.2,28.9,149.7,28.9z"/>
<g>
	<path class="st0" d="M157,7.3v2.4h2.5V7.3h1.1v6h-1.1v-2.6H157v2.6h-1.1v-6H157z"/>
	<path class="st0" d="M163,11.6l-0.5,1.7h-1.1l1.9-6h1.4l1.9,6h-1.2l-0.5-1.7H163z M164.7,10.8l-0.5-1.5c-0.1-0.4-0.2-0.8-0.3-1.1h0
		c-0.1,0.3-0.2,0.8-0.3,1.1l-0.5,1.5H164.7z"/>
	<path class="st0" d="M172.5,10.9c0-0.8-0.1-1.7-0.1-2.5h0c-0.2,0.7-0.4,1.5-0.7,2.3l-0.9,2.6H170l-0.8-2.5
		c-0.2-0.8-0.4-1.6-0.6-2.3h0c0,0.8-0.1,1.7-0.1,2.5l-0.1,2.4h-1l0.4-6h1.4l0.8,2.4c0.2,0.7,0.4,1.4,0.5,2.1h0
		c0.2-0.6,0.4-1.4,0.6-2.1l0.8-2.4h1.4l0.3,6h-1.1L172.5,10.9z"/>
	<path class="st0" d="M176.4,13.3v-0.7L177,12c1.4-1.3,2-1.9,2-2.7c0-0.5-0.3-1-1-1c-0.5,0-0.9,0.3-1.2,0.5l-0.3-0.8
		c0.4-0.3,1-0.6,1.8-0.6c1.3,0,1.9,0.8,1.9,1.7c0,1-0.7,1.8-1.7,2.8l-0.5,0.4v0h2.4v0.9H176.4z"/>
	<path class="st0" d="M185.2,10.4c0,1.9-0.7,3-2.1,3c-1.3,0-2-1.2-2-3c0-1.8,0.8-3,2.1-3C184.5,7.5,185.2,8.7,185.2,10.4z
		 M182.1,10.4c0,1.4,0.4,2.1,1,2.1c0.6,0,1-0.8,1-2.2c0-1.3-0.3-2.1-1-2.1C182.5,8.3,182.1,9,182.1,10.4z"/>
	<path class="st0" d="M192.2,7.3v6h-1.1V8.2h-1.6v1.6c0,1.4-0.1,2.7-1,3.3c-0.3,0.2-0.6,0.3-1.1,0.3l-0.1-0.9c0.3,0,0.5-0.2,0.7-0.3
		c0.4-0.4,0.5-1.4,0.5-2.3V7.3H192.2z"/>
	<path class="st0" d="M196.8,10.7h-2.2v1.8h2.5v0.9h-3.6v-6h3.5v0.9h-2.4v1.5h2.2V10.7z"/>
	<path class="st0" d="M199.1,8.3h-1.7V7.3h4.5v0.9h-1.7v5.1h-1.1V8.3z"/>
</g>
<g>
	<path class="st1" d="M21.8,0.9C9.9,0.9,0.2,10.5,0.2,22.4C0.2,34.3,9.9,44,21.8,44c11.9,0,21.6-9.7,21.6-21.6
		C43.4,10.5,33.7,0.9,21.8,0.9z"/>
	<radialGradient id="SVGID_1_" cx="21.798" cy="21.7993" r="21.5652" gradientUnits="userSpaceOnUse">
		<stop  offset="0" style="stop-color:#8E1913"/>
		<stop  offset="0.4945" style="stop-color:#C01715"/>
		<stop  offset="0.7979" style="stop-color:#DD1215"/>
	</radialGradient>
	<path class="st2" d="M21.8,0.2C9.9,0.2,0.2,9.9,0.2,21.8c0,11.9,9.7,21.6,21.6,21.6c11.9,0,21.6-9.7,21.6-21.6
		C43.4,9.9,33.7,0.2,21.8,0.2z"/>
	<path class="st3" d="M38.2,7.8l-0.4-0.4l-0.2-0.2l-0.2-0.2c-0.1-0.1-0.3-0.3-0.4-0.4l-0.4-0.4c-0.1-0.1-0.3-0.3-0.4-0.4
		c-0.1-0.1-0.3-0.3-0.4-0.4c-0.3-0.2-0.6-0.5-0.9-0.7c-1.3-0.9-2.6-1.7-4.1-2.4c-2.9-1.3-6-1.9-9.1-1.9c-3.1,0-6.2,0.8-9,2.2
		C9.7,3.9,7.2,5.9,5.3,8.3c-2,2.4-3.4,5.3-4.2,8.3c-0.8,3-0.9,6.2-0.3,9.3c0.3,1.5,0.7,3,1.4,4.5l0.2,0.5l0.1,0.3l0.1,0.3l0.3,0.5
		l0.3,0.5c0.2,0.3,0.4,0.7,0.6,1c0.1,0.2,0.2,0.3,0.3,0.5c0.1,0.2,0.2,0.3,0.3,0.5c1.8,2.6,4.2,4.7,6.9,6.3C10,39.9,8.7,39,7.5,38
		c-0.6-0.5-1.2-1.1-1.7-1.6c-0.3-0.3-0.5-0.6-0.8-0.9c-0.1-0.2-0.3-0.3-0.4-0.5l-0.4-0.5C2.4,32,1.1,29,0.4,25.9
		C0.1,24.4,0,22.8,0,21.2l0-0.3l0-0.3l0-0.6c0-0.4,0.1-0.8,0.1-1.2c0.1-0.4,0.1-0.8,0.2-1.2L0.5,17l0.1-0.3l0.1-0.3
		c0.8-3.1,2.2-6,4.2-8.5c2-2.5,4.6-4.5,7.4-5.9l0.5-0.2l0.3-0.1l0.3-0.1L14,1.4l0.6-0.2l0.3-0.1L15.1,1l0.6-0.2l0.6-0.2l0.3-0.1
		l0.3-0.1l0.6-0.1L18,0.3l0.3-0.1l0.3,0l0.6-0.1l0.6-0.1c0.1,0,0.2,0,0.3,0l0.3,0c0.2,0,0.4,0,0.6,0l0.6,0c3.2,0,6.3,0.7,9.2,2
		C33.6,3.4,36.2,5.3,38.2,7.8z"/>
	<g class="st4">
		<defs>
			<path id="SVGID_2_" class="st5" d="M21.8,0.2C9.9,0.2,0.2,9.9,0.2,21.8c0,11.9,9.7,21.6,21.6,21.6c11.9,0,21.6-9.7,21.6-21.6
				C43.4,9.9,33.7,0.2,21.8,0.2z M21.8,5.5c-0.8,0-1.5-0.7-1.5-1.5s0.7-1.5,1.5-1.5c0.8,0,1.5,0.7,1.5,1.5
				C23.3,4.8,22.6,5.5,21.8,5.5z"/>
		</defs>
		<clipPath id="SVGID_3_" class="st6">
			<use xlink:href="#SVGID_2_"  style="overflow:visible;"/>
		</clipPath>
		
			<radialGradient id="SVGID_4_" cx="988.5455" cy="10359.1162" r="31.2414" fx="957.3043" fy="10358.9951" gradientTransform="matrix(0.382 1.056 -0.1709 6.180000e-02 1435.4572 -1657.9943)" gradientUnits="userSpaceOnUse">
			<stop  offset="0" style="stop-color:#000000"/>
			<stop  offset="1" style="stop-color:#26231E;stop-opacity:0"/>
		</radialGradient>
		<path class="st7" d="M54.6,59.1C51.7,60.2,44,46.3,37.4,28C30.8,9.8,27.8-5.8,30.8-6.9C33.7-8,41.5,6,48,24.2
			C54.6,42.4,57.6,58,54.6,59.1z"/>
	</g>
	<g>
		<path class="st8" d="M27.6,4.7C37.2,7.9,42.4,18.4,39.1,28c-3.3,9.6-13.7,14.8-23.3,11.5C6.2,36.3,1,25.8,4.3,16.2
			C7.5,6.6,18,1.4,27.6,4.7"/>
		<g>
			<defs>
				<path id="SVGID_5_" d="M27.6,4.7C37.2,7.9,42.4,18.4,39.1,28c-3.3,9.6-13.7,14.8-23.3,11.5C6.2,36.3,1,25.8,4.3,16.2
					C7.5,6.6,18,1.4,27.6,4.7"/>
			</defs>
			<clipPath id="SVGID_6_">
				<use xlink:href="#SVGID_5_"  style="overflow:visible;"/>
			</clipPath>
			<g class="st9">
				
					<linearGradient id="SVGID_7_" gradientUnits="userSpaceOnUse" x1="191.7636" y1="-1196.1069" x2="212.1534" y2="-1196.1069" gradientTransform="matrix(1 0 0 1 -188.9514 1215.8701)">
					<stop  offset="0" style="stop-color:#DB0D15"/>
					<stop  offset="1" style="stop-color:#DB0D15;stop-opacity:0"/>
				</linearGradient>
				<path class="st10" d="M24,2.8c4.7,0,8.9,1.9,12,5c3.1,3.1,5,7.3,5,12c0,4.7-1.9,8.9-5,12c-3.1,3.1-7.3,5-12,5
					c-4.7,0-8.9-1.9-12-5c-3.1-3.1-5-7.3-5-12c0-4.7,1.9-8.9,5-12C15.1,4.7,19.3,2.8,24,2.8"/>
				
					<linearGradient id="SVGID_8_" gradientUnits="userSpaceOnUse" x1="243.2997" y1="-1191.0099" x2="208.4735" y2="-1191.0099" gradientTransform="matrix(1 0 0 1 -188.9514 1215.8701)">
					<stop  offset="0" style="stop-color:#DB0D15"/>
					<stop  offset="1" style="stop-color:#DB0D15;stop-opacity:0"/>
				</linearGradient>
				<path class="st11" d="M18.5,7.9c4.7,0,8.9,1.9,12,5c3.1,3.1,5,7.3,5,12c0,4.7-1.9,8.9-5,12c-3.1,3.1-7.3,5-12,5
					c-4.7,0-8.9-1.9-12-5c-3.1-3.1-5-7.3-5-12c0-4.7,1.9-8.9,5-12C9.6,9.8,13.9,7.9,18.5,7.9"/>
			</g>
		</g>
		<path class="st12" d="M27.6,4.7C37.2,7.9,42.4,18.4,39.1,28c-3.3,9.6-13.7,14.8-23.3,11.5C6.2,36.3,1,25.8,4.3,16.2
			C7.5,6.6,18,1.4,27.6,4.7"/>
		<path class="st13" d="M38.7,14.5c0.1-0.5,0.6-0.7,1.1-0.6c0.5,0.1,0.7,0.6,0.6,1.1c-0.1,0.5-0.6,0.7-1.1,0.6
			C38.9,15.4,38.6,14.9,38.7,14.5"/>
		<path class="st14" d="M21.7,6.2c8.8,0,15.9,7.1,15.9,15.9c0,8.8-7.1,15.9-15.9,15.9c-8.8,0-15.9-7.1-15.9-15.9
			C5.8,13.3,12.9,6.2,21.7,6.2"/>
		<g>
			<defs>
				<path id="SVGID_9_" d="M21.7,6.2c8.8,0,15.9,7.1,15.9,15.9c0,8.8-7.1,15.9-15.9,15.9c-8.8,0-15.9-7.1-15.9-15.9
					C5.8,13.3,12.9,6.2,21.7,6.2"/>
			</defs>
			<clipPath id="SVGID_10_">
				<use xlink:href="#SVGID_9_"  style="overflow:visible;"/>
			</clipPath>
		</g>
		<path class="st15" d="M31.7,17.6c-0.9-0.9-2.2-1.5-3.6-1.5c-1.4,0-2.7,0.6-3.6,1.5c-0.9,0.9-1.5,2.2-1.5,3.6
			c0,1.4,0.6,2.7,1.5,3.6c0.9,0.9,2.2,1.5,3.6,1.5c1.4,0,2.7-0.6,3.6-1.5c0.9-0.9,1.5-2.2,1.5-3.6C33.2,19.8,32.7,18.5,31.7,17.6
			 M28.1,11.6c2.7,0,5.1,1.1,6.8,2.8c1.7,1.7,2.8,4.2,2.8,6.8c0,2.7-1.1,5.1-2.8,6.8c-1.7,1.7-4.2,2.8-6.8,2.8
			c-2.7,0-5.1-1.1-6.8-2.8c-0.3-0.3-0.7-0.7-0.9-1.1c-0.4-0.5-1.7-2.5-2-4.6c-0.2-2.2,0.7-4.5,0.7-4.5c0.5-1.3,1.2-2.5,2.2-3.4
			C23,12.7,25.4,11.6,28.1,11.6z"/>
		
			<radialGradient id="SVGID_11_" cx="203.3329" cy="-1193.0801" r="9.675" gradientTransform="matrix(1 0 0 1 -188.9514 1215.8701)" gradientUnits="userSpaceOnUse">
			<stop  offset="0" style="stop-color:#DB0D15"/>
			<stop  offset="1" style="stop-color:#DB0D15;stop-opacity:0"/>
		</radialGradient>
		<path class="st16" d="M31.7,17.6c-0.9-0.9-2.2-1.5-3.6-1.5c-1.4,0-2.7,0.6-3.6,1.5c-0.9,0.9-1.5,2.2-1.5,3.6
			c0,1.4,0.6,2.7,1.5,3.6c0.9,0.9,2.2,1.5,3.6,1.5c1.4,0,2.7-0.6,3.6-1.5c0.9-0.9,1.5-2.2,1.5-3.6C33.2,19.8,32.7,18.5,31.7,17.6
			 M28.1,11.6c2.7,0,5.1,1.1,6.8,2.8c1.7,1.7,2.8,4.2,2.8,6.8c0,2.7-1.1,5.1-2.8,6.8c-1.7,1.7-4.2,2.8-6.8,2.8
			c-2.7,0-5.1-1.1-6.8-2.8c-0.3-0.3-0.7-0.7-0.9-1.1c-0.4-0.5-1.7-2.5-2-4.6c-0.2-2.2,0.7-4.5,0.7-4.5c0.5-1.3,1.2-2.5,2.2-3.4
			C23,12.7,25.4,11.6,28.1,11.6z"/>
		<path class="st8" d="M25.3,21.1c0,0-0.3-1.3,1.7-3.2c2.1-2,5.1-3.5,8-4.1c2.5-0.5,4.5-0.2,5.2-0.1C41.5,13.9,27.8,21.7,25.3,21.1"
			/>
		<path class="st15" d="M6.7,15.4c0.7-0.6,2.5-1.9,3.3-2.4c2-1.1,4.3-1.5,6.5-0.8c1.3,0.4,2.4,1.3,3.1,2.5c0.7,1.1,1,2.4,0.9,3.7
			c-0.1,2.6-1.6,4.5-3.4,6.3c-0.6,0.6-1.2,1.1-1.8,1.6l13,0l0,4.5l-20.6,0l0-4.5c0.1-0.1,0.3-0.2,0.5-0.3c0.2-0.2,0.5-0.4,0.9-0.6
			c1.1-0.8,2.5-1.8,2.9-2.2c0.6-0.5,1.3-1,1.9-1.7c0.9-0.8,1.9-2,2-3.3c0-0.8-0.3-1.5-1-1.7c-0.9-0.3-2,0-2.8,0.5
			c-0.5,0.3-2,1.4-2.5,1.8L6.7,15.4z"/>
		<defs>
			<filter id="Adobe_OpacityMaskFilter" filterUnits="userSpaceOnUse" x="6.4" y="14.1" width="14" height="18.3">
				<feFlood  style="flood-color:white;flood-opacity:1" result="back"/>
				<feBlend  in="SourceGraphic" in2="back" mode="normal"/>
			</filter>
		</defs>
		<mask maskUnits="userSpaceOnUse" x="6.4" y="14.1" width="14" height="18.3" id="SVGID_12_">
			<g class="st17">
				
					<linearGradient id="SVGID_13_" gradientUnits="userSpaceOnUse" x1="-1872.0391" y1="538.2122" x2="-1872.8717" y2="549.9927" gradientTransform="matrix(1 0 0 1 1886.1882 -526.2063)">
					<stop  offset="0" style="stop-color:#FFFFFF"/>
					<stop  offset="1" style="stop-color:#24211C"/>
				</linearGradient>
				<rect x="6.4" y="14.1" class="st18" width="14" height="18.3"/>
			</g>
		</mask>
		
			<linearGradient id="SVGID_14_" gradientUnits="userSpaceOnUse" x1="202.7727" y1="-1193.4917" x2="206.4848" y2="-1201.9918" gradientTransform="matrix(1 0 0 1 -188.9514 1215.8701)">
			<stop  offset="0" style="stop-color:#DB0D15;stop-opacity:0"/>
			<stop  offset="1" style="stop-color:#DB0D15"/>
		</linearGradient>
		<path class="st19" d="M9.4,19.5c0.5-1.7,2-4.1,4.4-5c3.4-1.3,6.7,0.5,6.5,4.4c-0.1,2.6-1.5,5.7-3.3,7.2c-3.2,2.8-7.4,6.5-9.9,6.2
			C4.6,32.1,9.4,19.5,9.4,19.5"/>
		<path class="st20" d="M6.7,15.4c0.7-0.6,2.5-1.9,3.3-2.4c2-1.1,4.3-1.5,6.5-0.8c1.3,0.4,2.4,1.3,3.1,2.5c0.7,1.1,1,2.4,0.9,3.7
			c-0.1,2.6-1.6,4.5-3.4,6.3c-0.6,0.6-1.2,1.1-1.8,1.6l13,0l0,4.5l-20.6,0l0-4.5c0.1-0.1,0.3-0.2,0.5-0.3c0.2-0.2,0.5-0.4,0.9-0.6
			c1.1-0.8,2.5-1.8,2.9-2.2c0.6-0.5,1.3-1,1.9-1.7c0.9-0.8,1.9-2,2-3.3c0-0.8-0.3-1.5-1-1.7c-0.9-0.3-2,0-2.8,0.5
			c-0.5,0.3-2,1.4-2.5,1.8L6.7,15.4z"/>
		<g>
			<defs>
				<path id="SVGID_15_" d="M31.7,17.6c-0.9-0.9-2.2-1.5-3.6-1.5c-1.4,0-2.7,0.6-3.6,1.5c-0.9,0.9-1.5,2.2-1.5,3.6
					c0,1.4,0.6,2.7,1.5,3.6c0.9,0.9,2.2,1.5,3.6,1.5c1.4,0,2.7-0.6,3.6-1.5c0.9-0.9,1.5-2.2,1.5-3.6C33.2,19.8,32.7,18.5,31.7,17.6
					 M28.1,11.6c2.7,0,5.1,1.1,6.8,2.8c1.7,1.7,2.8,4.2,2.8,6.8c0,2.7-1.1,5.1-2.8,6.8c-1.7,1.7-4.2,2.8-6.8,2.8
					c-2.7,0-5.1-1.1-6.8-2.8c-0.3-0.3-0.7-0.7-0.9-1.1c-0.4-0.5-1.7-2.5-2-4.6c-0.2-2.2,0.7-4.5,0.7-4.5c0.5-1.3,1.2-2.5,2.2-3.4
					C23,12.7,25.4,11.6,28.1,11.6z"/>
			</defs>
			<clipPath id="SVGID_16_">
				<use xlink:href="#SVGID_15_"  style="overflow:visible;"/>
			</clipPath>
			
				<linearGradient id="SVGID_17_" gradientUnits="userSpaceOnUse" x1="220.2793" y1="-1196.3434" x2="227.0038" y2="-1192.1472" gradientTransform="matrix(1 0 0 1 -188.9514 1215.8701)">
				<stop  offset="0" style="stop-color:#DB0D15;stop-opacity:0"/>
				<stop  offset="1" style="stop-color:#DB0D15"/>
			</linearGradient>
			<path class="st21" d="M27,7.2c2.7,0,5.1,1.1,6.8,2.8c1.7,1.7,2.8,4.2,2.8,6.8c0,2.7-1.1,5.1-2.8,6.8c-1.7,1.7-4.2,2.8-6.8,2.8
				c-2.7,0-5.1-1.1-6.8-2.8c-1.7-1.7-2.8-4.2-2.8-6.8c0-2.7,1.1-5.1,2.8-6.8C21.9,8.3,24.3,7.2,27,7.2"/>
		</g>
		<path class="st22" d="M24.7,21.1c0,0,1.7-3.1,7.5-5.8c5.8-2.7,9.9-2.3,9.9-2.3s-0.9,5.7-6.8,8.4C29.3,24.1,24.7,21.1,24.7,21.1"/>
		<g>
			<defs>
				<path id="SVGID_18_" d="M24.7,21.1c0,0,1.7-3.1,7.5-5.8c5.8-2.7,9.9-2.3,9.9-2.3s-0.9,5.7-6.8,8.4
					C29.3,24.1,24.7,21.1,24.7,21.1"/>
			</defs>
			<clipPath id="SVGID_19_">
				<use xlink:href="#SVGID_18_"  style="overflow:visible;"/>
			</clipPath>
			<path class="st23" d="M23.2,21.3c0,0,5.1-0.4,12.3-4.1c7.2-3.7,8.9-6.4,8.9-6.4s-3.8-2.2-11.1,0.9C26,14.8,23.2,21.3,23.2,21.3"
				/>
		</g>
		<path class="st8" d="M8.3,13.4c-0.2,0.4,0.1,0.7,0.4,0.5c0.4-0.3-0.2,1.2-0.3,1.3c-0.1,0.1-0.5,1.7-0.8,1.3
			c-0.3-0.4-0.7-0.3-0.9,0.1c-0.1,0.4-0.8-0.1-0.6-0.8C6.3,15.2,8.3,13.4,8.3,13.4"/>
		<path class="st8" d="M7.2,28.8c0.2,0.4,0.5,0.2,0.5-0.1c0-0.3,0.7,0.3,0.8,0.5c0.1,0.2,1,1.6,0.7,1.6c-0.3,0-0.7,0.1-0.5,0.5
			C9,31.8,8,31.7,7.5,30.9C7,30.1,7.2,28.8,7.2,28.8"/>
		<path class="st8" d="M36.9,25.2c0.2-0.5,0.4-0.2,0.4,0.2c-0.1,0.4,0.5,0.1,0.6-0.8c0.1-0.9-0.1-1.8-0.4-1.8
			c-0.3-0.1-0.5,0.3-0.6,0.6C36.8,23.5,36.9,25.2,36.9,25.2"/>
		<path class="st8" d="M34.1,13.7c0.2,0.1,0.4,0.2,0.6,0.2c0.3,0,0.4-0.2,0.3-0.5c-0.2-0.2,0-0.3,0-0.3c0.1,0,0.4,0.8,0.4,0.8
			c0,0-0.5,0.4-0.7,0.4c-0.3,0-0.5,0.1-0.5,0C34.1,14,34.1,13.7,34.1,13.7"/>
	</g>
</g>
</svg>
